<?xml version="1.0" encoding="UTF-8" standalone="no"?>
<svg
   xmlns:dc="http://purl.org/dc/elements/1.1/"
   xmlns:cc="http://creativecommons.org/ns#"
   xmlns:rdf="http://www.w3.org/1999/02/22-rdf-syntax-ns#"
   xmlns:svg="http://www.w3.org/2000/svg"
   xmlns="http://www.w3.org/2000/svg"
   xmlns:xlink="http://www.w3.org/1999/xlink"
   xmlns:sodipodi="http://sodipodi.sourceforge.net/DTD/sodipodi-0.dtd"
   xmlns:inkscape="http://www.inkscape.org/namespaces/inkscape"
   width="141.19876"
   version="1.1"
   height="88.491226"
   viewBox="0 0 112.959 70.792978"
   id="svg2"
   inkscape:version="0.48.3.1 r9886"
   sodipodi:docname="logo.svg">
  <metadata
     id="metadata157">
    <rdf:RDF>
      <cc:Work
         rdf:about="">
        <dc:format>image/svg+xml</dc:format>
        <dc:type
           rdf:resource="http://purl.org/dc/dcmitype/StillImage" />
      </cc:Work>
    </rdf:RDF>
  </metadata>
  <sodipodi:namedview
     pagecolor="#ffffff"
     bordercolor="#666666"
     borderopacity="1"
     objecttolerance="10"
     gridtolerance="10"
     guidetolerance="10"
     inkscape:pageopacity="0"
     inkscape:pageshadow="2"
     inkscape:window-width="1280"
     inkscape:window-height="999"
     id="namedview155"
     showgrid="false"
     inkscape:zoom="3.588117"
     inkscape:cx="21.79137"
     inkscape:cy="27.185943"
     inkscape:window-x="-1"
     inkscape:window-y="6"
     inkscape:window-maximized="1"
     inkscape:current-layer="g4073"
     fit-margin-top="2"
     fit-margin-left="2"
     fit-margin-right="2"
     fit-margin-bottom="2" />
  <defs
     id="defs4">
    <clipPath
       id="Clip0">
      <path
         d="m 0,0 109.917,0 0,74.5282 L 0,74.5282 0,0 z"
         transform="translate(140,116.173)"
         id="path7"
         inkscape:connector-curvature="0" />
    </clipPath>
    <path
       id="GlURWBookmanL-DemiBold45"
       d="M 3.4,6.82 0.67,6.82 0.2,7.9 2.95,7.9 3.4,6.82 z"
       inkscape:connector-curvature="0" />
    <path
       id="GlURWBookmanL-DemiBold83"
       d="M 4.58,3.51 C 4.18,3.24 3.56,3.06 2.98,3.06 1.48,3.06 0.4,3.97 0.4,5.24 0.4,5.87 0.68,6.42 1.16,6.73 1.51,6.95 1.71,7.02 2.89,7.31 L 3.88,7.56 C 4.63,7.75 4.84,7.9 4.84,8.27 4.84,8.79 4.32,9.16 3.58,9.16 2.88,9.16 2.18,8.85 1.68,8.33 1.41,8.03 1.22,7.78 0.96,7.31 l -0.75,0.25 0.83,2.55 0.59,0 0.14,-0.49 c 0.42,0.31 1.11,0.51 1.79,0.51 1.63,0 2.83,-1.02 2.83,-2.4 C 6.39,7.11 6.12,6.56 5.66,6.26 5.36,6.06 5.07,5.96 4.23,5.73 L 3.32,5.49 C 3.29,5.48 3.11,5.44 2.83,5.38 2.22,5.24 1.95,5.05 1.95,4.73 c 0,-0.41 0.46,-0.7 1.1,-0.7 0.57,0 1.19,0.27 1.57,0.68 0.17,0.18 0.3,0.34 0.62,0.78 L 5.96,5.22 5.3,3.19 4.7,3.19 4.58,3.51 z"
       inkscape:connector-curvature="0" />
    <path
       id="GlURWBookmanL-DemiBold84"
       d="m 6.22,3.19 -5.51,0 -0.75,2.07 0.75,0.29 C 1.06,4.7 1.76,4.12 2.43,4.12 2.58,4.12 2.6,4.17 2.6,4.48 l 0,3.84 C 2.6,8.71 2.57,8.85 2.48,8.95 2.39,9.06 2.14,9.15 1.92,9.16 l -0.3,0.02 0,0.82 3.71,0 0,-0.82 -0.3,-0.02 C 4.81,9.15 4.56,9.06 4.47,8.95 4.38,8.85 4.35,8.71 4.35,8.32 l 0,-3.87 c 0,-0.35 0,-0.35 0.2,-0.35 0.35,0 0.73,0.19 1.1,0.55 0.23,0.22 0.31,0.33 0.65,0.9 L 7.03,5.26 6.22,3.19 z"
       inkscape:connector-curvature="0" />
    <path
       id="GlURWBookmanL-DemiBold85"
       d="m 6.36,4.87 c 0,-0.64 0.12,-0.78 0.68,-0.84 l 0.2,-0.02 0,-0.82 -2.74,0 0,0.82 0.2,0.02 c 0.56,0.06 0.68,0.2 0.68,0.84 l 0,2.67 C 5.38,8.22 5.27,8.56 4.97,8.8 4.74,8.98 4.41,9.08 4.04,9.08 3.62,9.08 3.3,8.95 3.08,8.68 2.85,8.4 2.78,8.12 2.78,7.51 l 0,-2.64 C 2.78,4.23 2.9,4.09 3.46,4.03 l 0.2,-0.02 0,-0.82 -3.51,0 0,0.82 0.2,0.02 c 0.56,0.06 0.68,0.2 0.68,0.84 l 0,2.83 c 0,0.92 0.12,1.32 0.52,1.71 0.46,0.44 1.29,0.72 2.16,0.72 0.82,0 1.6,-0.24 2.04,-0.63 C 6.22,9.08 6.36,8.62 6.36,7.49 l 0,-2.62 z"
       inkscape:connector-curvature="0" />
    <path
       id="GlURWBookmanL-DemiBold68"
       d="M 1.08,8.32 C 1.08,8.96 0.96,9.1 0.4,9.16 L 0.2,9.18 0.2,10 3.61,10 C 5.22,10 6.01,9.72 6.69,8.92 7.21,8.32 7.48,7.52 7.48,6.62 7.48,5.53 7.09,4.61 6.36,3.98 5.62,3.34 5.07,3.19 3.38,3.19 l -3.18,0 0,0.82 0.2,0.02 c 0.56,0.06 0.68,0.2 0.68,0.84 l 0,3.45 0,0 z M 2.83,4.62 C 2.83,4.2 2.98,4.09 3.55,4.09 4.8,4.09 5.56,5.02 5.56,6.55 5.56,8.1 4.75,9.1 3.5,9.1 3.24,9.1 3.02,9.05 2.92,8.97 2.83,8.9 2.83,8.87 2.83,8.38 l 0,-3.76 z"
       inkscape:connector-curvature="0" />
    <path
       id="GlURWBookmanL-DemiBold73"
       d="M 1.12,8.32 C 1.12,8.7 1.09,8.85 1,8.95 0.91,9.06 0.68,9.14 0.44,9.16 L 0.2,9.18 0.2,10 3.79,10 3.79,9.18 3.55,9.16 C 3.31,9.14 3.08,9.06 2.99,8.95 2.9,8.85 2.87,8.7 2.87,8.32 l 0,-3.45 C 2.87,4.49 2.9,4.34 2.99,4.24 3.08,4.13 3.31,4.05 3.55,4.03 l 0.24,-0.02 0,-0.82 -3.59,0 0,0.82 0.24,0.02 C 0.68,4.05 0.91,4.13 1,4.24 1.09,4.34 1.12,4.49 1.12,4.87 l 0,3.45 z"
       inkscape:connector-curvature="0" />
    <path
       id="GlURWBookmanL-DemiBold103"
       d="M 2.53,9.13 C 1.87,9.08 1.72,9.01 1.72,8.78 c 0,-0.12 0.09,-0.22 0.21,-0.22 0.03,0 0.09,0.01 0.15,0.02 0.23,0.05 0.59,0.09 0.84,0.09 1.3,0 2.22,-0.78 2.22,-1.89 C 5.14,6.18 4.91,5.74 4.36,5.32 4.46,5.23 4.52,5.2 4.67,5.2 c 0.09,0 0.1,0 0.31,0.07 C 5.07,5.3 5.16,5.32 5.22,5.32 5.56,5.32 5.83,5.06 5.83,4.75 5.83,4.37 5.49,4.07 5.05,4.07 4.72,4.07 4.32,4.23 4.07,4.45 3.94,4.57 3.85,4.67 3.63,4.97 3.23,4.88 3.03,4.85 2.76,4.85 1.48,4.85 0.54,5.67 0.54,6.77 0.54,7.33 0.77,7.8 1.23,8.15 0.64,8.29 0.27,8.76 0.27,9.36 c 0,0.35 0.16,0.62 0.5,0.87 -0.46,0.21 -0.68,0.49 -0.68,0.9 0,0.53 0.36,0.93 1.01,1.14 0.4,0.13 1.03,0.21 1.59,0.21 0.85,0 1.65,-0.16 2.13,-0.42 C 5.31,11.79 5.66,11.18 5.66,10.6 5.66,9.82 5.13,9.36 4.11,9.27 l -1.58,-0.14 0,0 z M 2.84,5.77 c 0.48,0 0.68,0.32 0.68,1.1 0,0.67 -0.22,0.98 -0.68,0.98 -0.47,0 -0.68,-0.31 -0.68,-1 0,-0.75 0.21,-1.08 0.68,-1.08 l 0,0 z m 0.48,5.01 c 0.62,0.07 0.79,0.16 0.79,0.4 0,0.32 -0.47,0.48 -1.45,0.48 -0.83,0 -1.44,-0.25 -1.44,-0.58 0,-0.19 0.12,-0.36 0.33,-0.49 l 1.77,0.19 z"
       inkscape:connector-curvature="0" />
    <path
       id="GlURWBookmanL-DemiBold101"
       d="M 5.36,7.46 C 5.36,6.75 5.29,6.34 5.1,6 4.71,5.31 3.9,4.89 2.94,4.89 1.4,4.89 0.31,5.96 0.31,7.47 c 0,1.52 1.14,2.62 2.72,2.62 0.76,0 1.45,-0.27 1.89,-0.75 C 5.11,9.14 5.23,8.98 5.48,8.57 L 4.64,8.16 C 4.25,8.74 3.84,9.01 3.33,9.01 2.55,9.01 2.11,8.44 2.12,7.46 l 3.24,0 0,0 z M 2.18,6.69 c 0.03,-0.55 0.3,-0.88 0.75,-0.88 0.45,0 0.64,0.25 0.66,0.88 l -1.41,0 z"
       inkscape:connector-curvature="0" />
    <path
       id="GlURWBookmanL-DemiBold110"
       d="m 2.4,4.98 -0.62,0 -1.56,0.29 0,0.81 0.18,0.02 c 0.44,0.05 0.55,0.21 0.55,0.82 l 0,1.44 c 0,0.57 -0.06,0.67 -0.44,0.76 l -0.29,0.07 0,0.81 2.97,0 0,-0.81 L 3.01,9.14 C 2.63,9.03 2.57,8.93 2.57,8.36 l 0,-1.95 c 0.4,-0.27 0.84,-0.44 1.14,-0.44 0.3,0 0.45,0.22 0.45,0.64 l 0,1.75 c 0,0.57 -0.06,0.67 -0.44,0.78 l -0.18,0.05 0,0.81 2.98,0 0,-0.81 -0.3,-0.07 C 5.84,9.03 5.78,8.93 5.78,8.36 l 0,-1.88 C 5.78,5.94 5.69,5.66 5.41,5.36 5.11,5.03 4.76,4.89 4.22,4.89 3.59,4.89 3.05,5.05 2.4,5.41 l 0,-0.43 z"
       inkscape:connector-curvature="0" />
    <path
       id="GlURWBookmanL-DemiBold104"
       d="M 2.63,6.36 C 2.87,6.15 3.38,5.97 3.7,5.97 c 0.28,0 0.42,0.2 0.42,0.62 l 0,1.77 c 0,0.58 -0.02,0.61 -0.44,0.78 l -0.13,0.05 0,0.81 2.99,0 0,-0.81 L 6.18,9.12 C 5.81,9.05 5.74,8.92 5.74,8.36 l 0,-1.9 C 5.74,5.9 5.63,5.59 5.32,5.31 5.03,5.04 4.63,4.89 4.18,4.89 3.64,4.89 3.2,5.02 2.63,5.34 l 0,-2.58 -0.65,0 C 1.35,3.03 0.67,3.2 0.22,3.19 l 0,0.81 0.2,0.02 c 0.17,0.02 0.39,0.1 0.46,0.18 0.1,0.1 0.13,0.24 0.13,0.63 l 0,3.53 c 0,0.56 -0.07,0.69 -0.44,0.76 L 0.22,9.19 0.22,10 3.2,10 3.2,9.19 3.07,9.14 C 2.65,8.97 2.63,8.94 2.63,8.36 l 0,-2 z"
       inkscape:connector-curvature="0" />
    <path
       id="GlURWBookmanL-DemiBold111"
       d="m 3.03,4.89 c -1.62,0 -2.72,1.02 -2.72,2.53 0,1.64 1.07,2.67 2.77,2.67 1.68,0 2.77,-1.01 2.77,-2.57 0,-1.61 -1.1,-2.63 -2.82,-2.63 l 0,0 z m 0.06,1.02 c 0.63,0 0.94,0.55 0.94,1.65 0,1.02 -0.33,1.56 -0.94,1.56 -0.63,0 -0.96,-0.54 -0.96,-1.58 0,-1.08 0.32,-1.63 0.96,-1.63 z"
       inkscape:connector-curvature="0" />
    <path
       id="GlURWBookmanL-DemiBold77"
       d="m 3.31,3.19 -3.11,0 0,0.82 0.2,0.02 c 0.56,0.06 0.68,0.2 0.68,0.84 l 0,3.45 C 1.08,8.96 0.96,9.1 0.4,9.16 l -0.2,0.02 0,0.82 2.74,0 0,-0.82 -0.2,-0.02 C 2.18,9.1 2.06,8.96 2.06,8.32 l 0,-3.54 1.72,5.22 1.08,0 1.75,-5.15 0,3.47 c 0,0.64 -0.12,0.78 -0.68,0.84 l -0.2,0.02 0,0.82 3.51,0 0,-0.82 -0.2,-0.02 C 8.48,9.1 8.36,8.96 8.36,8.32 l 0,-3.45 c 0,-0.64 0.12,-0.78 0.68,-0.84 l 0.2,-0.02 0,-0.82 -3.13,0 L 4.69,7.45 3.31,3.19 z"
       inkscape:connector-curvature="0" />
    <path
       id="GlURWBookmanL-DemiBold69"
       d="m 4.92,4.78 -0.78,0 C 4.13,5.32 4.05,5.61 3.87,5.75 3.75,5.84 3.58,5.87 3.12,5.87 l -0.29,0 0,-0.85 c 0,-0.53 0.01,-0.63 0.09,-0.73 0.1,-0.13 0.45,-0.2 0.97,-0.2 0.88,0 1.72,0.53 2.39,1.5 L 6.96,5.25 5.97,3.19 l -5.77,0 0,0.82 0.2,0.02 c 0.56,0.06 0.68,0.2 0.68,0.84 l 0,3.45 C 1.08,8.96 0.96,9.1 0.4,9.16 L 0.2,9.18 0.2,10 6.14,10 7.24,7.64 6.54,7.31 C 5.67,8.56 4.8,9.1 3.66,9.1 3.21,9.1 2.95,9.02 2.88,8.86 2.84,8.76 2.83,8.63 2.83,7.97 l 0,-1.18 0.28,0 c 0.35,0 0.56,0.05 0.69,0.17 0.16,0.15 0.28,0.48 0.34,0.93 l 0.78,0 0,-3.11 z"
       inkscape:connector-curvature="0" />
    <path
       id="GlURWBookmanL-DemiBold78"
       d="m 3.15,3.19 -2.95,0 0,0.82 0.2,0.02 c 0.56,0.06 0.68,0.2 0.68,0.84 l 0,3.45 C 1.08,8.96 0.96,9.1 0.4,9.16 l -0.2,0.02 0,0.82 2.69,0 0,-0.82 -0.2,-0.02 C 2.13,9.1 2.01,8.96 2.01,8.32 l 0,-3.58 3.11,5.26 1.24,0 0,-5.13 c 0,-0.64 0.12,-0.78 0.68,-0.84 l 0.2,-0.02 0,-0.82 -2.69,0 0,0.82 0.2,0.02 c 0.56,0.06 0.68,0.2 0.68,0.84 l 0,2.25 -2.28,-3.93 z"
       inkscape:connector-curvature="0" />
  </defs>
  <g
     id="Hintergrund"
     transform="translate(-138.55701,-114.06722)">
    <use
       style="fill:#ffffff;stroke:#822429;stroke-width:0.53475934"
       xlink:href="#GlURWBookmanL-DemiBold45"
       transform="matrix(2.244,0,0,2.244,153.4374,109.62572)"
       id="use27"
       x="0"
       y="0"
       width="595.28003"
       height="841.89001" />
    <use
       style="fill:#ffffff;stroke:#822429;stroke-width:0.53475934"
       xlink:href="#GlURWBookmanL-DemiBold83"
       transform="matrix(2.244,0,0,2.244,159.9158,109.62572)"
       id="use29"
       x="0"
       y="0"
       width="595.28003"
       height="841.89001" />
    <use
       style="fill:#ffffff;stroke:#822429;stroke-width:0.53475934"
       xlink:href="#GlURWBookmanL-DemiBold84"
       transform="matrix(2.244,0,0,2.244,172.051,109.62572)"
       id="use31"
       x="0"
       y="0"
       width="595.28003"
       height="841.89001" />
    <use
       style="fill:#ffffff;stroke:#822429;stroke-width:0.53475934"
       xlink:href="#GlURWBookmanL-DemiBold85"
       transform="matrix(2.244,0,0,2.244,185.039,109.62572)"
       id="use33"
       x="0"
       y="0"
       width="595.28003"
       height="841.89001" />
    <use
       style="fill:#ffffff;stroke:#822429;stroke-width:0.53475934"
       xlink:href="#GlURWBookmanL-DemiBold68"
       transform="matrix(2.244,0,0,2.244,198.9246,109.62572)"
       id="use35"
       x="0"
       y="0"
       width="595.28003"
       height="841.89001" />
    <use
       style="fill:#ffffff;stroke:#822429;stroke-width:0.53475934"
       xlink:href="#GlURWBookmanL-DemiBold73"
       transform="matrix(2.244,0,0,2.244,213.7078,109.62572)"
       id="use37"
       x="0"
       y="0"
       width="595.28003"
       height="841.89001" />
    <use
       style="fill:#ffffff;stroke:#822429;stroke-width:0.53475934"
       xlink:href="#GlURWBookmanL-DemiBold83"
       transform="matrix(2.244,0,0,2.244,219.9638,109.62572)"
       id="use39"
       x="0"
       y="0"
       width="595.28003"
       height="841.89001" />
    <use
       style="fill:#ffffff;stroke:#822429;stroke-width:0.53475934"
       xlink:href="#GlURWBookmanL-DemiBold45"
       transform="matrix(2.244,0,0,2.244,232.0542,109.62572)"
       id="use41"
       x="0"
       y="0"
       width="595.28003"
       height="841.89001" />
    <use
       style="fill:#ffffff;stroke:#822429;stroke-width:0.64935064"
       xlink:href="#GlURWBookmanL-DemiBold103"
       transform="matrix(1.848,0,0,1.848,152.0206,126.01924)"
       id="use43"
       x="0"
       y="0"
       width="595.28003"
       height="841.89001" />
    <use
       style="fill:#ffffff;stroke:#822429;stroke-width:0.64935064"
       xlink:href="#GlURWBookmanL-DemiBold101"
       transform="matrix(1.848,0,0,1.848,160.8063,126.01924)"
       id="use45"
       x="0"
       y="0"
       width="595.28003"
       height="841.89001" />
    <use
       style="fill:#ffffff;stroke:#822429;stroke-width:0.64935064"
       xlink:href="#GlURWBookmanL-DemiBold103"
       transform="matrix(1.848,0,0,1.848,169.2847,126.01924)"
       id="use47"
       x="0"
       y="0"
       width="595.28003"
       height="841.89001" />
    <use
       style="fill:#ffffff;stroke:#822429;stroke-width:0.64935064"
       xlink:href="#GlURWBookmanL-DemiBold101"
       transform="matrix(1.848,0,0,1.848,177.4305,126.01924)"
       id="use49"
       x="0"
       y="0"
       width="595.28003"
       height="841.89001" />
    <use
       style="fill:#ffffff;stroke:#822429;stroke-width:0.64935064"
       xlink:href="#GlURWBookmanL-DemiBold110"
       transform="matrix(1.848,0,0,1.848,185.9089,126.01924)"
       id="use51"
       x="0"
       y="0"
       width="595.28003"
       height="841.89001" />
    <use
       style="fill:#ffffff;stroke:#822429;stroke-width:0.64935064"
       xlink:href="#GlURWBookmanL-DemiBold104"
       transform="matrix(1.848,0,0,1.848,200.4806,126.01924)"
       id="use53"
       x="0"
       y="0"
       width="595.28003"
       height="841.89001" />
    <use
       style="fill:#ffffff;stroke:#822429;stroke-width:0.64935064"
       xlink:href="#GlURWBookmanL-DemiBold111"
       transform="matrix(1.848,0,0,1.848,210.807,126.01924)"
       id="use55"
       x="0"
       y="0"
       width="595.28003"
       height="841.89001" />
    <use
       style="fill:#ffffff;stroke:#822429;stroke-width:0.64935064"
       xlink:href="#GlURWBookmanL-DemiBold104"
       transform="matrix(1.848,0,0,1.848,220.0246,126.01924)"
       id="use57"
       x="0"
       y="0"
       width="595.28003"
       height="841.89001" />
    <use
       style="fill:#ffffff;stroke:#822429;stroke-width:0.64935064"
       xlink:href="#GlURWBookmanL-DemiBold101"
       transform="matrix(1.848,0,0,1.848,230.351,126.01924)"
       id="use59"
       x="0"
       y="0"
       width="595.28003"
       height="841.89001" />
    <use
       style="fill:#ffffff;stroke:#822429;stroke-width:0.53475934"
       xlink:href="#GlURWBookmanL-DemiBold45"
       transform="matrix(2.244,0,0,2.244,150.3182,139.6257)"
       id="use61"
       x="0"
       y="0"
       width="595.28003"
       height="841.89001" />
    <use
       style="fill:#ffffff;stroke:#822429;stroke-width:0.53475934"
       xlink:href="#GlURWBookmanL-DemiBold77"
       transform="matrix(2.244,0,0,2.244,156.7966,139.6257)"
       id="use63"
       x="0"
       y="0"
       width="595.28003"
       height="841.89001" />
    <use
       style="fill:#ffffff;stroke:#822429;stroke-width:0.53475934"
       xlink:href="#GlURWBookmanL-DemiBold73"
       transform="matrix(2.244,0,0,2.244,175.1702,139.6257)"
       id="use65"
       x="0"
       y="0"
       width="595.28003"
       height="841.89001" />
    <use
       style="fill:#ffffff;stroke:#822429;stroke-width:0.53475934"
       xlink:href="#GlURWBookmanL-DemiBold69"
       transform="matrix(2.244,0,0,2.244,181.4262,139.6257)"
       id="use67"
       x="0"
       y="0"
       width="595.28003"
       height="841.89001" />
    <use
       style="fill:#ffffff;stroke:#822429;stroke-width:0.53475934"
       xlink:href="#GlURWBookmanL-DemiBold84"
       transform="matrix(2.244,0,0,2.244,194.863,139.6257)"
       id="use69"
       x="0"
       y="0"
       width="595.28003"
       height="841.89001" />
    <use
       style="fill:#ffffff;stroke:#822429;stroke-width:0.53475934"
       xlink:href="#GlURWBookmanL-DemiBold69"
       transform="matrix(2.244,0,0,2.244,207.851,139.6257)"
       id="use71"
       x="0"
       y="0"
       width="595.28003"
       height="841.89001" />
    <use
       style="fill:#ffffff;stroke:#822429;stroke-width:0.53475934"
       xlink:href="#GlURWBookmanL-DemiBold78"
       transform="matrix(2.244,0,0,2.244,221.2878,139.6257)"
       id="use73"
       x="0"
       y="0"
       width="595.28003"
       height="841.89001" />
    <use
       style="fill:#ffffff;stroke:#822429;stroke-width:0.53475934"
       xlink:href="#GlURWBookmanL-DemiBold45"
       transform="matrix(2.244,0,0,2.244,235.1734,139.6257)"
       id="use75"
       x="0"
       y="0"
       width="595.28003"
       height="841.89001" />
    <path
       style="fill:none;stroke:none"
       d="m 140,116.583 109.759,0 0,74.1188 -109.759,0 0,-74.1188 z"
       id="path77"
       inkscape:connector-curvature="0" />
    <g
       id="g4073"
       transform="translate(-111.99999,0)">
      <use
         height="841.89001"
         width="595.28003"
         y="0"
         x="0"
         id="use81"
         transform="matrix(2.244,0,0,2.244,265.5944,109.21572)"
         xlink:href="#GlURWBookmanL-DemiBold45"
         style="fill:#ffffff;stroke:#822429;stroke-width:0.35650623" />
      <use
         height="841.89001"
         width="595.28003"
         y="0"
         x="0"
         id="use83"
         transform="matrix(2.244,0,0,2.244,272.0728,109.21572)"
         xlink:href="#GlURWBookmanL-DemiBold83"
         style="fill:#ffffff;stroke:#822429;stroke-width:0.35650623" />
      <use
         height="841.89001"
         width="595.28003"
         y="0"
         x="0"
         id="use85"
         transform="matrix(2.244,0,0,2.244,284.208,109.21572)"
         xlink:href="#GlURWBookmanL-DemiBold84"
         style="fill:#ffffff;stroke:#822429;stroke-width:0.35650623" />
      <use
         height="841.89001"
         width="595.28003"
         y="0"
         x="0"
         id="use87"
         transform="matrix(2.244,0,0,2.244,297.196,109.21572)"
         xlink:href="#GlURWBookmanL-DemiBold85"
         style="fill:#ffffff;stroke:#822429;stroke-width:0.35650623" />
      <use
         height="841.89001"
         width="595.28003"
         y="0"
         x="0"
         id="use89"
         transform="matrix(2.244,0,0,2.244,311.0816,109.21572)"
         xlink:href="#GlURWBookmanL-DemiBold68"
         style="fill:#ffffff;stroke:#822429;stroke-width:0.35650623" />
      <use
         height="841.89001"
         width="595.28003"
         y="0"
         x="0"
         id="use91"
         transform="matrix(2.244,0,0,2.244,325.8648,109.21572)"
         xlink:href="#GlURWBookmanL-DemiBold73"
         style="fill:#ffffff;stroke:#822429;stroke-width:0.35650623" />
      <use
         height="841.89001"
         width="595.28003"
         y="0"
         x="0"
         id="use93"
         transform="matrix(2.244,0,0,2.244,332.1208,109.21572)"
         xlink:href="#GlURWBookmanL-DemiBold83"
         style="fill:#ffffff;stroke:#822429;stroke-width:0.35650623" />
      <use
         height="841.89001"
         width="595.28003"
         y="0"
         x="0"
         id="use95"
         transform="matrix(2.244,0,0,2.244,344.2112,109.21572)"
         xlink:href="#GlURWBookmanL-DemiBold45"
         style="fill:#ffffff;stroke:#822429;stroke-width:0.35650623" />
      <use
         height="841.89001"
         width="595.28003"
         y="0"
         x="0"
         id="use97"
         transform="matrix(1.848,0,0,1.848,264.1776,125.60924)"
         xlink:href="#GlURWBookmanL-DemiBold103"
         style="fill:#ffffff;stroke:#822429;stroke-width:0.4329004" />
      <use
         height="841.89001"
         width="595.28003"
         y="0"
         x="0"
         id="use99"
         transform="matrix(1.848,0,0,1.848,272.9633,125.60924)"
         xlink:href="#GlURWBookmanL-DemiBold101"
         style="fill:#ffffff;stroke:#822429;stroke-width:0.4329004" />
      <use
         height="841.89001"
         width="595.28003"
         y="0"
         x="0"
         id="use101"
         transform="matrix(1.848,0,0,1.848,281.4417,125.60924)"
         xlink:href="#GlURWBookmanL-DemiBold103"
         style="fill:#ffffff;stroke:#822429;stroke-width:0.4329004" />
      <use
         height="841.89001"
         width="595.28003"
         y="0"
         x="0"
         id="use103"
         transform="matrix(1.848,0,0,1.848,289.5875,125.60924)"
         xlink:href="#GlURWBookmanL-DemiBold101"
         style="fill:#ffffff;stroke:#822429;stroke-width:0.4329004" />
      <use
         height="841.89001"
         width="595.28003"
         y="0"
         x="0"
         id="use105"
         transform="matrix(1.848,0,0,1.848,298.0659,125.60924)"
         xlink:href="#GlURWBookmanL-DemiBold110"
         style="fill:#ffffff;stroke:#822429;stroke-width:0.4329004" />
      <use
         height="841.89001"
         width="595.28003"
         y="0"
         x="0"
         id="use107"
         transform="matrix(1.848,0,0,1.848,312.6376,125.60924)"
         xlink:href="#GlURWBookmanL-DemiBold104"
         style="fill:#ffffff;stroke:#822429;stroke-width:0.4329004" />
      <use
         height="841.89001"
         width="595.28003"
         y="0"
         x="0"
         id="use109"
         transform="matrix(1.848,0,0,1.848,322.964,125.60924)"
         xlink:href="#GlURWBookmanL-DemiBold111"
         style="fill:#ffffff;stroke:#822429;stroke-width:0.4329004" />
      <use
         height="841.89001"
         width="595.28003"
         y="0"
         x="0"
         id="use111"
         transform="matrix(1.848,0,0,1.848,332.1816,125.60924)"
         xlink:href="#GlURWBookmanL-DemiBold104"
         style="fill:#ffffff;stroke:#822429;stroke-width:0.4329004" />
      <use
         height="841.89001"
         width="595.28003"
         y="0"
         x="0"
         id="use113"
         transform="matrix(1.848,0,0,1.848,342.508,125.60924)"
         xlink:href="#GlURWBookmanL-DemiBold101"
         style="fill:#ffffff;stroke:#822429;stroke-width:0.4329004" />
      <use
         height="841.89001"
         width="595.28003"
         y="0"
         x="0"
         id="use115"
         transform="matrix(2.244,0,0,2.244,262.4752,139.2157)"
         xlink:href="#GlURWBookmanL-DemiBold45"
         style="fill:#ffffff;stroke:#822429;stroke-width:0.35650623" />
      <use
         height="841.89001"
         width="595.28003"
         y="0"
         x="0"
         id="use117"
         transform="matrix(2.244,0,0,2.244,268.9536,139.2157)"
         xlink:href="#GlURWBookmanL-DemiBold77"
         style="fill:#ffffff;stroke:#822429;stroke-width:0.35650623" />
      <use
         height="841.89001"
         width="595.28003"
         y="0"
         x="0"
         id="use119"
         transform="matrix(2.244,0,0,2.244,287.3272,139.2157)"
         xlink:href="#GlURWBookmanL-DemiBold73"
         style="fill:#ffffff;stroke:#822429;stroke-width:0.35650623" />
      <use
         height="841.89001"
         width="595.28003"
         y="0"
         x="0"
         id="use121"
         transform="matrix(2.244,0,0,2.244,293.5832,139.2157)"
         xlink:href="#GlURWBookmanL-DemiBold69"
         style="fill:#ffffff;stroke:#822429;stroke-width:0.35650623" />
      <use
         height="841.89001"
         width="595.28003"
         y="0"
         x="0"
         id="use123"
         transform="matrix(2.244,0,0,2.244,307.02,139.2157)"
         xlink:href="#GlURWBookmanL-DemiBold84"
         style="fill:#ffffff;stroke:#822429;stroke-width:0.35650623" />
      <use
         height="841.89001"
         width="595.28003"
         y="0"
         x="0"
         id="use125"
         transform="matrix(2.244,0,0,2.244,320.008,139.2157)"
         xlink:href="#GlURWBookmanL-DemiBold69"
         style="fill:#ffffff;stroke:#822429;stroke-width:0.35650623" />
      <use
         height="841.89001"
         width="595.28003"
         y="0"
         x="0"
         id="use127"
         transform="matrix(2.244,0,0,2.244,333.4448,139.2157)"
         xlink:href="#GlURWBookmanL-DemiBold78"
         style="fill:#ffffff;stroke:#822429;stroke-width:0.35650623" />
      <use
         height="841.89001"
         width="595.28003"
         y="0"
         x="0"
         id="use129"
         transform="matrix(2.244,0,0,2.244,347.3304,139.2157)"
         xlink:href="#GlURWBookmanL-DemiBold45"
         style="fill:#ffffff;stroke:#822429;stroke-width:0.35650623" />
      <path
         inkscape:connector-curvature="0"
         id="path131"
         d="m 252.157,116.173 109.759,0 0,67.0872 -109.759,0 0,-67.0872 z"
         style="fill:none;stroke:none" />
    </g>
    <g
       id="g4111"
       transform="translate(0,-63.999996)">
      <use
         height="841.89001"
         width="595.28003"
         y="0"
         x="0"
         id="use135"
         transform="matrix(1.848,0,0,1.848,152.1796,189.61624)"
         xlink:href="#GlURWBookmanL-DemiBold103"
         style="fill:#ffffff;stroke:#822429;stroke-width:0.4329004" />
      <use
         height="841.89001"
         width="595.28003"
         y="0"
         x="0"
         id="use137"
         transform="matrix(1.848,0,0,1.848,160.9653,189.61624)"
         xlink:href="#GlURWBookmanL-DemiBold101"
         style="fill:#ffffff;stroke:#822429;stroke-width:0.4329004" />
      <use
         height="841.89001"
         width="595.28003"
         y="0"
         x="0"
         id="use139"
         transform="matrix(1.848,0,0,1.848,169.4437,189.61624)"
         xlink:href="#GlURWBookmanL-DemiBold103"
         style="fill:#ffffff;stroke:#822429;stroke-width:0.4329004" />
      <use
         height="841.89001"
         width="595.28003"
         y="0"
         x="0"
         id="use141"
         transform="matrix(1.848,0,0,1.848,177.5895,189.61624)"
         xlink:href="#GlURWBookmanL-DemiBold101"
         style="fill:#ffffff;stroke:#822429;stroke-width:0.4329004" />
      <use
         height="841.89001"
         width="595.28003"
         y="0"
         x="0"
         id="use143"
         transform="matrix(1.848,0,0,1.848,186.0679,189.61624)"
         xlink:href="#GlURWBookmanL-DemiBold110"
         style="fill:#ffffff;stroke:#822429;stroke-width:0.4329004" />
      <use
         height="841.89001"
         width="595.28003"
         y="0"
         x="0"
         id="use145"
         transform="matrix(1.848,0,0,1.848,200.6396,189.61624)"
         xlink:href="#GlURWBookmanL-DemiBold104"
         style="fill:#ffffff;stroke:#822429;stroke-width:0.4329004" />
      <use
         height="841.89001"
         width="595.28003"
         y="0"
         x="0"
         id="use147"
         transform="matrix(1.848,0,0,1.848,210.966,189.61624)"
         xlink:href="#GlURWBookmanL-DemiBold111"
         style="fill:#ffffff;stroke:#822429;stroke-width:0.4329004" />
      <use
         height="841.89001"
         width="595.28003"
         y="0"
         x="0"
         id="use149"
         transform="matrix(1.848,0,0,1.848,220.1836,189.61624)"
         xlink:href="#GlURWBookmanL-DemiBold104"
         style="fill:#ffffff;stroke:#822429;stroke-width:0.4329004" />
      <use
         height="841.89001"
         width="595.28003"
         y="0"
         x="0"
         id="use151"
         transform="matrix(1.848,0,0,1.848,230.51,189.61624)"
         xlink:href="#GlURWBookmanL-DemiBold101"
         style="fill:#ffffff;stroke:#822429;stroke-width:0.4329004" />
      <path
         inkscape:connector-curvature="0"
         id="path153"
         d="m 140.159,194.504 109.759,0 0,31.2522 -109.759,0 0,-31.2522 z"
         style="fill:none;stroke:none" />
    </g>
  </g>
</svg>
