<?xml version="1.0" encoding="UTF-8" standalone="no"?>
<!DOCTYPE svg PUBLIC "-//W3C//DTD SVG 20010904//EN"
              "http://www.w3.org/TR/2001/REC-SVG-20010904/DTD/svg10.dtd">

<svg xmlns="http://www.w3.org/2000/svg"
     width="13.8889in" height="6.18056in"
     viewBox="0 0 1000 445">
  <path id="Auswahl#1"
        fill="none" stroke="black" stroke-width="1"
        d="M 352.17,230.00
           C 352.17,230.00 359.88,210.00 359.88,210.00
             359.88,210.00 366.17,197.00 366.17,197.00
             366.17,197.00 376.97,169.00 376.97,169.00
             380.56,160.83 382.94,149.27 391.04,144.39
             397.14,140.72 411.64,143.50 414.95,150.04
             414.95,150.04 421.30,173.00 421.30,173.00
             421.30,173.00 431.51,207.00 431.51,207.00
             431.51,207.00 433.29,215.00 433.29,215.00
             433.29,215.00 436.10,224.00 436.10,224.00
             436.10,224.00 438.17,233.00 438.17,233.00
             439.07,235.63 441.46,245.26 442.59,246.49
             446.34,250.56 452.91,246.69 454.43,255.00
             454.90,256.52 454.88,258.42 454.43,259.85
             452.96,262.83 449.85,263.14 447.00,263.57
             447.00,263.57 438.00,264.55 438.00,264.55
             433.03,265.76 425.03,269.39 420.31,265.40
             412.59,258.88 426.27,254.68 427.80,249.91
             428.55,247.55 427.15,245.16 426.30,243.00
             421.52,230.75 414.24,231.95 403.00,232.00
             390.90,232.06 378.32,236.29 367.04,240.33
             363.39,241.64 357.24,246.41 358.66,250.89
             359.67,254.09 363.35,254.61 364.98,257.27
             365.80,258.60 365.99,260.45 365.92,261.98
             365.66,267.76 361.50,266.99 357.00,267.00
             357.00,267.00 343.00,267.00 343.00,267.00
             334.50,266.99 331.32,265.24 331.00,256.00
             346.99,251.85 346.16,243.26 352.17,230.00 Z
           M 455.43,190.40
           C 452.99,188.24 453.56,185.81 453.57,183.00
             453.57,183.00 453.57,176.00 453.57,176.00
             453.57,176.00 454.26,165.00 454.26,165.00
             454.36,162.06 453.45,156.94 454.99,154.60
             457.49,150.82 467.65,148.72 472.00,148.42
             472.00,148.42 478.99,149.02 478.99,149.02
             483.84,148.99 483.79,146.67 489.01,146.11
             489.01,146.11 512.00,144.79 512.00,144.79
             518.56,143.86 530.25,139.21 536.58,143.29
             540.74,145.96 540.05,154.62 539.85,159.00
             539.85,159.00 539.85,169.00 539.85,169.00
             540.09,172.63 541.62,177.34 540.69,180.98
             538.73,188.60 531.69,184.59 528.93,179.98
             524.13,172.00 525.90,160.98 520.86,158.02
             515.29,154.76 511.07,159.42 508.75,164.00
             506.16,169.12 505.01,189.55 505.00,196.00
             504.98,208.55 501.85,233.98 506.72,244.94
             509.51,251.21 522.92,247.91 522.63,257.96
             522.49,262.77 517.57,262.89 514.00,263.42
             499.60,265.55 506.89,267.03 490.00,267.00
             484.71,266.99 477.05,266.35 477.23,259.07
             477.38,253.11 483.64,253.32 485.87,251.98
             488.53,250.39 489.95,246.96 490.40,244.00
             490.40,244.00 489.00,226.00 489.00,226.00
             489.00,226.00 489.00,175.00 489.00,175.00
             489.00,171.94 489.23,166.79 487.15,164.36
             486.48,163.58 485.89,163.17 484.87,162.97
             482.88,162.59 470.93,165.75 469.59,167.31
             467.93,169.26 467.50,173.47 467.08,176.00
             467.08,176.00 464.00,192.00 464.00,192.00
             461.29,191.99 457.60,192.31 455.43,190.40 Z
           M 784.00,142.59
           C 784.00,142.59 791.00,145.32 791.00,145.32
             791.00,145.32 798.00,146.72 798.00,146.72
             800.18,147.48 811.51,154.05 813.56,155.59
             818.47,159.28 825.17,169.79 825.09,176.00
             825.06,177.88 822.61,185.22 821.70,187.00
             818.92,192.42 807.38,202.84 801.99,206.07
             798.72,208.03 790.88,209.94 790.52,214.42
             790.29,217.39 795.01,221.23 797.01,223.05
             797.01,223.05 820.00,243.00 820.00,243.00
             823.66,245.96 831.34,250.23 827.26,255.78
             821.85,263.12 812.16,255.29 807.00,251.83
             807.00,251.83 796.83,243.86 796.83,243.86
             796.83,243.86 780.00,231.80 780.00,231.80
             777.49,229.91 768.02,222.50 766.00,221.74
             761.24,219.94 753.79,222.35 751.74,227.13
             750.73,229.47 750.95,237.12 751.00,240.00
             751.06,242.99 751.02,245.26 753.31,247.51
             757.01,251.14 765.81,252.71 764.58,259.89
             763.96,263.53 759.87,263.93 757.00,264.93
             748.84,267.79 743.52,267.11 735.00,267.00
             731.68,266.95 728.12,267.00 726.18,263.77
             721.74,256.43 730.38,256.28 733.76,253.35
             736.38,251.08 736.24,249.16 736.13,246.00
             736.13,246.00 735.00,229.00 735.00,229.00
             735.00,229.00 735.00,197.00 735.00,197.00
             735.00,197.00 732.84,172.15 732.84,172.15
             731.69,168.41 728.82,169.81 725.46,167.49
             723.09,165.86 721.21,162.66 717.96,161.60
             713.27,160.06 708.67,163.52 707.14,168.00
             706.92,169.84 707.00,173.03 707.14,175.00
             707.14,175.00 707.14,253.00 707.14,253.00
             707.00,255.02 707.12,258.11 706.40,259.96
             704.14,265.83 696.40,268.61 691.02,265.49
             686.37,262.80 683.11,256.71 679.83,252.42
             674.89,245.97 675.92,245.97 672.52,240.28
             672.52,240.28 662.96,224.00 662.96,224.00
             662.96,224.00 648.57,195.00 648.57,195.00
             648.57,195.00 641.37,181.01 641.37,181.01
             640.54,179.34 639.12,176.95 637.09,176.62
             632.43,175.86 632.93,189.14 633.04,192.00
             633.04,192.00 635.37,219.00 635.37,219.00
             634.99,224.44 632.11,239.34 633.31,243.96
             635.18,251.11 641.88,246.16 646.43,255.00
             647.05,256.22 647.58,257.59 647.46,258.99
             646.91,265.77 638.17,266.99 633.00,267.00
             626.54,267.01 614.86,268.64 611.44,261.82
             606.74,252.43 619.08,254.31 621.29,244.00
             621.29,244.00 621.29,226.00 621.29,226.00
             621.29,226.00 621.29,219.00 621.29,219.00
             621.29,219.00 621.29,211.00 621.29,211.00
             621.29,211.00 622.00,200.00 622.00,200.00
             622.01,192.69 622.88,177.20 620.15,171.02
             617.84,165.78 606.84,161.86 607.54,154.06
             607.95,149.47 615.49,149.44 619.00,149.07
             627.24,148.21 631.30,143.88 639.98,147.73
             642.30,148.76 644.12,149.93 645.35,152.21
             645.35,152.21 654.03,174.00 654.03,174.00
             654.03,174.00 659.92,185.00 659.92,185.00
             659.92,185.00 676.88,223.00 676.88,223.00
             678.45,226.40 682.95,235.39 685.47,237.68
             689.56,241.40 692.53,238.75 692.81,234.00
             692.81,234.00 692.81,230.00 692.81,230.00
             692.81,230.00 692.81,213.00 692.81,213.00
             692.81,213.00 692.81,183.00 692.81,183.00
             693.07,177.63 695.20,169.95 692.81,165.15
             690.48,161.32 680.11,160.72 681.90,153.13
             682.51,150.55 685.80,149.14 688.00,148.15
             694.27,145.34 701.29,145.91 708.00,146.00
             710.95,146.04 712.98,145.97 715.56,147.65
             717.85,149.14 720.52,152.77 723.09,153.12
             723.09,153.12 735.00,149.13 735.00,149.13
             735.00,149.13 746.00,146.32 746.00,146.32
             753.06,145.07 758.02,145.00 765.00,142.59
             769.16,141.81 779.97,141.53 784.00,142.59 Z
           M 964.00,144.82
           C 969.30,143.46 969.41,141.84 976.00,142.04
             979.27,142.14 984.04,142.66 986.28,145.31
             987.15,146.35 987.67,147.72 988.06,149.00
             990.95,158.66 982.67,157.58 977.38,162.49
             975.24,164.47 973.91,167.24 973.10,170.00
             973.10,170.00 971.22,179.00 971.22,179.00
             971.22,179.00 968.78,186.00 968.78,186.00
             968.78,186.00 967.16,193.00 967.16,193.00
             967.16,193.00 964.67,199.00 964.67,199.00
             964.67,199.00 963.16,205.00 963.16,205.00
             963.16,205.00 952.26,237.00 952.26,237.00
             952.26,237.00 944.98,257.00 944.98,257.00
             943.84,260.52 943.68,264.00 939.94,265.97
             934.79,268.68 924.05,262.40 921.35,257.98
             919.65,255.20 914.92,239.41 914.33,236.00
             914.33,236.00 913.79,229.00 913.79,229.00
             913.79,229.00 910.53,219.00 910.53,219.00
             910.53,219.00 909.42,208.00 909.42,208.00
             908.48,200.96 909.41,202.35 906.73,195.01
             906.23,193.64 905.48,190.94 903.79,190.62
             901.93,190.27 900.20,192.71 899.34,194.02
             899.34,194.02 893.03,207.00 893.03,207.00
             887.82,218.38 881.19,234.99 878.04,247.00
             876.92,251.27 873.50,263.98 869.89,265.98
             865.98,268.15 858.29,264.98 855.93,261.70
             854.27,259.40 854.20,255.72 853.69,253.00
             852.11,244.60 851.02,246.01 851.00,236.00
             850.97,218.74 847.02,219.29 847.00,205.00
             846.97,188.38 847.02,195.42 844.59,180.00
             844.13,177.05 843.93,172.62 842.85,170.04
             840.90,165.37 838.17,165.79 835.05,163.44
             831.82,161.01 830.97,158.73 830.00,155.00
             840.81,147.46 844.12,150.50 856.00,149.02
             859.60,148.57 861.50,146.72 864.00,147.00
             866.80,147.31 871.60,151.26 872.26,154.04
             873.69,160.05 865.21,161.96 863.58,163.57
             861.08,166.05 861.95,170.77 861.99,174.00
             861.99,174.00 861.99,186.04 861.99,186.04
             861.99,186.04 864.83,212.00 864.83,212.00
             865.59,219.98 865.09,228.13 867.00,236.00
             867.00,236.00 869.00,236.00 869.00,236.00
             869.00,236.00 873.40,227.00 873.40,227.00
             873.40,227.00 879.32,210.00 879.32,210.00
             879.32,210.00 893.74,171.00 893.74,171.00
             896.09,164.96 904.67,155.64 911.98,159.19
             919.68,162.92 920.09,175.59 920.83,183.00
             921.87,193.35 922.65,191.11 923.81,198.00
             923.81,198.00 925.33,213.00 925.33,213.00
             925.33,213.00 927.66,221.00 927.66,221.00
             927.66,221.00 929.64,232.00 929.64,232.00
             929.64,232.00 933.00,240.00 933.00,240.00
             939.51,236.54 940.28,229.39 942.36,223.00
             942.36,223.00 952.13,195.00 952.13,195.00
             952.13,195.00 956.00,184.00 956.00,184.00
             957.35,180.86 963.41,168.44 962.97,166.04
             962.13,161.49 956.49,161.43 954.49,159.99
             950.68,157.24 949.63,151.30 950.00,147.00
             950.00,147.00 964.00,144.82 964.00,144.82 Z
           M 292.00,147.77
           C 295.77,149.79 299.47,154.11 297.98,158.75
             296.68,162.77 291.24,160.89 286.23,165.53
             281.93,169.50 283.03,175.66 283.00,181.00
             283.00,181.00 281.91,216.00 281.91,216.00
             281.91,216.00 280.80,223.00 280.80,223.00
             280.38,228.12 280.39,241.03 285.23,243.98
             287.24,245.20 290.68,245.00 293.00,245.00
             299.27,245.01 314.59,246.91 317.98,240.89
             320.03,237.24 319.34,222.40 321.09,217.00
             321.93,214.42 323.46,210.07 326.89,210.44
             330.39,210.82 333.40,215.83 333.85,219.00
             333.85,219.00 331.00,243.00 331.00,243.00
             331.00,243.00 331.00,248.00 331.00,248.00
             330.90,254.97 328.77,256.75 322.00,258.51
             322.00,258.51 301.00,260.22 301.00,260.22
             301.00,260.22 293.00,262.73 293.00,262.73
             293.00,262.73 280.04,264.22 280.04,264.22
             273.47,265.23 275.91,267.50 268.00,264.22
             266.05,263.56 264.72,263.09 263.06,261.69
             253.31,253.50 266.95,251.31 266.94,241.00
             266.94,241.00 265.59,226.00 265.59,226.00
             265.59,226.00 265.59,207.00 265.59,207.00
             265.59,207.00 265.00,174.00 265.00,174.00
             264.99,170.36 265.30,166.31 262.43,163.56
             259.94,161.18 251.61,160.27 253.33,153.14
             254.19,149.62 262.74,147.59 266.00,146.55
             271.62,145.58 287.15,145.16 292.00,147.77 Z
           M 752.85,165.34
           C 750.56,168.45 751.07,173.31 750.99,177.00
             750.99,177.00 750.00,196.00 750.00,196.00
             749.97,198.66 749.73,203.47 751.17,205.84
             754.13,210.24 759.23,207.17 763.00,205.84
             763.00,205.84 769.00,204.35 769.00,204.35
             781.91,199.80 797.48,191.13 805.71,180.00
             807.39,177.73 810.07,173.81 810.40,171.00
             811.44,162.30 802.21,158.10 795.00,158.00
             795.00,158.00 773.00,157.30 773.00,157.30
             768.28,158.19 755.60,161.61 752.85,165.34 Z
           M 18.00,162.68
           C 18.00,162.68 39.00,176.73 39.00,176.73
             39.00,176.73 70.00,192.80 70.00,192.80
             78.09,196.66 84.69,197.03 83.67,208.00
             82.86,216.76 74.01,219.30 67.00,222.99
             67.00,222.99 48.00,234.45 48.00,234.45
             48.00,234.45 30.17,244.03 30.17,244.03
             25.54,246.81 17.83,252.76 13.00,254.30
             6.09,256.52 3.60,252.33 4.06,246.00
             4.73,236.73 11.97,237.94 17.00,235.39
             17.00,235.39 48.00,217.42 48.00,217.42
             51.17,215.64 62.87,210.18 62.23,206.14
             61.69,202.76 52.05,199.16 49.00,197.58
             49.00,197.58 35.00,191.25 35.00,191.25
             35.00,191.25 25.00,185.25 25.00,185.25
             20.59,183.17 9.72,179.08 6.57,175.97
             4.18,173.61 3.28,164.16 4.60,161.15
             5.38,159.35 5.54,159.86 6.31,159.04
             11.22,157.48 13.96,160.00 18.00,162.68 Z
           M 123.83,162.15
           C 123.83,162.15 145.28,176.53 145.28,176.53
             145.28,176.53 175.00,192.29 175.00,192.29
             177.58,193.57 186.65,196.90 188.02,198.58
             190.49,201.62 191.13,212.17 186.58,215.84
             186.58,215.84 170.00,224.42 170.00,224.42
             170.00,224.42 160.00,231.16 160.00,231.16
             160.00,231.16 140.00,242.04 140.00,242.04
             140.00,242.04 119.00,254.45 119.00,254.45
             112.21,256.45 109.70,252.21 110.07,246.00
             110.58,237.47 117.33,237.90 123.00,235.36
             123.00,235.36 155.00,217.01 155.00,217.01
             157.99,215.28 169.76,209.99 168.68,206.17
             167.70,202.70 158.20,199.05 155.00,197.63
             155.00,197.63 141.00,191.27 141.00,191.27
             141.00,191.27 131.00,185.22 131.00,185.22
             126.17,182.79 116.92,179.45 113.30,176.12
             109.16,172.32 108.71,163.09 112.43,159.03
             117.06,157.38 119.92,159.62 123.83,162.15 Z
           M 389.39,180.00
           C 389.39,180.00 371.00,220.00 371.00,220.00
             380.38,222.25 383.77,219.01 392.00,217.19
             392.00,217.19 406.00,217.19 406.00,217.19
             410.19,216.97 414.38,217.02 415.53,211.98
             416.25,208.82 412.81,198.42 411.63,195.00
             407.83,183.96 406.25,169.92 400.00,160.00
             395.73,164.15 391.92,174.32 389.39,180.00 Z
           M 593.94,211.43
           C 599.03,214.42 598.87,220.70 595.69,222.83
             593.59,224.22 589.48,224.00 587.00,224.00
             587.00,224.00 566.00,224.00 566.00,224.00
             563.50,224.00 558.18,224.23 556.04,223.40
             553.36,222.37 547.93,216.88 550.05,213.74
             551.39,211.76 555.88,212.01 558.00,212.00
             567.37,211.95 564.40,211.98 573.00,209.53
             577.70,208.79 589.92,209.06 593.94,211.43 Z" />
</svg>
