<?xml version="1.0" encoding="UTF-8" standalone="no"?>
<svg
   xmlns:dc="http://purl.org/dc/elements/1.1/"
   xmlns:cc="http://creativecommons.org/ns#"
   xmlns:rdf="http://www.w3.org/1999/02/22-rdf-syntax-ns#"
   xmlns:svg="http://www.w3.org/2000/svg"
   xmlns="http://www.w3.org/2000/svg"
   xmlns:xlink="http://www.w3.org/1999/xlink"
   xmlns:sodipodi="http://sodipodi.sourceforge.net/DTD/sodipodi-0.dtd"
   xmlns:inkscape="http://www.inkscape.org/namespaces/inkscape"
   width="524.40942"
   version="1.1"
   height="372.04724"
   viewBox="0 0 419.52752 297.63779"
   id="svg2"
   inkscape:version="0.48.3.1 r9886"
   sodipodi:docname="logo.svg"
   inkscape:export-filename="/home/ben/Dokumente/layout/studienfinanzierung/logo-bafoeg.png"
   inkscape:export-xdpi="175.74055"
   inkscape:export-ydpi="175.74055">
  <metadata
     id="metadata103">
    <rdf:RDF>
      <cc:Work
         rdf:about="">
        <dc:format>image/svg+xml</dc:format>
        <dc:type
           rdf:resource="http://purl.org/dc/dcmitype/StillImage" />
        <dc:title></dc:title>
      </cc:Work>
    </rdf:RDF>
  </metadata>
  <sodipodi:namedview
     pagecolor="#ffffff"
     bordercolor="#666666"
     borderopacity="1"
     objecttolerance="10"
     gridtolerance="10"
     guidetolerance="10"
     inkscape:pageopacity="0"
     inkscape:pageshadow="2"
     inkscape:window-width="1280"
     inkscape:window-height="999"
     id="namedview101"
     showgrid="false"
     inkscape:zoom="1.2685909"
     inkscape:cx="194.54361"
     inkscape:cy="177.94187"
     inkscape:window-x="-1"
     inkscape:window-y="6"
     inkscape:window-maximized="1"
     inkscape:current-layer="g25" />
  <defs
     id="defs4">
    <path
       id="GlKenyanCoffeeBold66"
       d="m 3.65,8.13 c 0,0 0,1.07 -0.17,1.39 0,0 -0.26,0.49 -1.22,0.49 0,0 -0.37,0 -0.97,0 0,0 -0.9,-0.01 -0.97,-0.01 l 0,-7.19 2.11,0 c 0,0 0.87,0 1.09,0.55 0,0 0.11,0.27 0.11,1.33 0,0 0,0.45 -0.11,0.68 0,0 -0.14,0.32 -0.53,0.45 0,0 0.65,0.21 0.65,1.47 0,0 0,0.14 0,0.42 0,0 0.01,0.28 0.01,0.42 l 0,0 z M 2.14,4.4 c 0,0 0,-0.21 -0.06,-0.285 0,0 -0.06,-0.075 -0.27,-0.075 l 0,1.09 c 0,0 0.21,0.01 0.27,-0.05 0,0 0.06,-0.06 0.06,-0.28 l 0,-0.4 0,0 z m 0,3.79 0,-1.17 c 0,0 0,-0.32 -0.03,-0.37 0,0 -0.05,-0.12 -0.3,-0.12 l 0,2.2 c 0,0 0.23,0 0.29,-0.17 0,0 0.04,-0.08 0.04,-0.37 z"
       inkscape:connector-curvature="0" />
    <path
       id="GlKenyanCoffeeBold65"
       d="m 3.58,10 -1.49,0 0,-1.4 -0.34,0 0,1.4 -1.49,0 0,-5.72 c 0,0 0,-0.92 0.275,-1.21 0,0 0.275,-0.29 1.185,-0.29 0,0 1.12,0 1.42,0.18 0,0 0.44,0.27 0.44,1.32 l 0,5.72 0,0 z M 2.1,4.38 c 0,0 0,-0.33 -0.17,-0.33 0,0 -0.19,0 -0.19,0.33 l 0.01,2.96 0.34,0 0.01,-2.96 z"
       inkscape:connector-curvature="0" />
    <path
       id="GlKenyanCoffeeBold102"
       d="m 2.24,5.6 -0.54,0 0,4.4 -1.3,0 0,-4.4 -0.31,0 0,-1.05 0.31,0 0,-0.58 c 0,0 0,-0.68 0.41,-0.95 0,0 0.33,-0.21 1.05,-0.21 l 0.38,0 0,0.97 c 0,0 -0.34,0 -0.445,0.075 0,0 -0.105,0.075 -0.105,0.285 0,0 0,0.05 0.01,0.18 0,0 0,0.14 0,0.23 l 0.54,0 0,1.05 z"
       inkscape:connector-curvature="0" />
    <path
       id="GlKenyanCoffeeBold246"
       d="m 3.08,5.73 0,3.03 c 0,0 0,0.87 -0.34,1.1 0,0 -0.25,0.17 -1.17,0.17 0,0 -0.79,0 -1.05,-0.19 0,0 -0.32,-0.23 -0.32,-0.99 l 0,-2.93 c 0,0 0,-0.94 0.25,-1.185 0,0 0.25,-0.245 1.21,-0.245 0,0 0.84,0 1.11,0.2 0,0 0.31,0.24 0.31,1.04 l 0,0 z m -1.29,0.2 c 0,0 0,-0.35 -0.15,-0.35 0,0 -0.14,0 -0.14,0.52 l 0,2.56 c 0,0 0,0.27 0.14,0.27 0,0 0.15,0 0.15,-0.39 l 0,-2.61 0,0 z M 2.78,3.87 c 0,0 0,0.2 -0.155,0.33 0,0 -0.155,0.13 -0.365,0.13 0,0 -0.21,0 -0.365,-0.125 0,0 -0.155,-0.125 -0.155,-0.335 0,0 0,-0.2 0.16,-0.335 0,0 0.16,-0.135 0.36,-0.135 0,0 0.21,0 0.365,0.135 0,0 0.155,0.135 0.155,0.335 l 0,0 z m -1.29,0 c 0,0 0,0.2 -0.16,0.33 0,0 -0.16,0.13 -0.36,0.13 0,0 -0.21,0 -0.37,-0.125 0,0 -0.16,-0.125 -0.16,-0.335 0,0 0,-0.21 0.155,-0.34 0,0 0.155,-0.13 0.365,-0.13 0,0 0.21,0 0.37,0.135 0,0 0.16,0.135 0.16,0.335 z"
       inkscape:connector-curvature="0" />
    <path
       id="GlKenyanCoffeeBold71"
       d="M 3.59,9.99 1.45,10 c 0,0 -0.71,0 -0.98,-0.4 0,0 -0.21,-0.32 -0.21,-1.07 l 0,-4.3 c 0,0 0,-1.04 0.45,-1.31 0,0 0.29,-0.18 1.41,-0.18 0,0 0.27,0 0.46,0.01 0,0 0.65,0.06 0.86,0.46 0,0 0.15,0.28 0.15,1.02 l 0,0.7 -1.5,0 c 0,0 0,-0.1 0.01,-0.3 0,0 0,-0.2 0,-0.3 0,0 0,-0.33 -0.18,-0.33 0,0 -0.17,0 -0.17,0.33 l 0,4.1 c 0,0 0,0.22 0.055,0.275 0,0 0.055,0.055 0.285,0.055 l 0,-2.94 1.5,0 0,4.17 z"
       inkscape:connector-curvature="0" />
    <path
       id="GlLibelSuit111"
       d="m 3.14,8.59 c 0,0 0,0.58 -0.41,0.99 0,0 -0.41,0.41 -0.99,0.41 0,0 -0.58,0 -0.99,-0.41 0,0 -0.41,-0.41 -0.41,-0.99 l 0,-2.8 c 0,0 0,-0.58 0.41,-0.99 0,0 0.41,-0.41 0.99,-0.41 0,0 0.58,0 0.99,0.41 0,0 0.41,0.41 0.41,0.99 l 0,2.8 0,0 z m -0.81,0 0,-2.8 c 0,0 0,-0.24 -0.175,-0.415 0,0 -0.175,-0.175 -0.415,-0.175 0,0 -0.25,0 -0.42,0.175 0,0 -0.17,0.175 -0.17,0.415 l 0,2.8 c 0,0 0,0.25 0.17,0.42 0,0 0.17,0.17 0.42,0.17 0,0 0.24,0 0.415,-0.17 0,0 0.175,-0.17 0.175,-0.42 z"
       inkscape:connector-curvature="0" />
    <path
       id="GlLibelSuit104"
       d="m 3.14,9.99 -0.81,0 0,-4.2 c 0,0 0,-0.24 -0.175,-0.415 0,0 -0.175,-0.175 -0.415,-0.175 0,0 -0.25,0 -0.42,0.175 0,0 -0.17,0.175 -0.17,0.415 l 0,4.2 -0.81,0 0,-6.91 0.81,-0.27 0,1.8 c 0,0 0.27,-0.22 0.59,-0.22 0,0 0.58,0 0.99,0.41 0,0 0.41,0.41 0.41,0.99 l 0,4.2 z"
       inkscape:connector-curvature="0" />
    <path
       id="GlLibelSuit110"
       d="m 3.14,9.99 -0.81,0 0,-4.2 c 0,0 0,-0.24 -0.175,-0.415 0,0 -0.175,-0.175 -0.415,-0.175 0,0 -0.25,0 -0.42,0.175 0,0 -0.17,0.175 -0.17,0.415 l 0,4.2 -0.81,0 0,-5.6 0.54,0 0.18,0.31 c 0,0 0.23,-0.31 0.68,-0.31 0,0 0.58,0 0.99,0.41 0,0 0.41,0.41 0.41,0.99 l 0,4.2 z"
       inkscape:connector-curvature="0" />
    <path
       id="GlLibelSuit101"
       d="m 3.14,8.59 c 0,0 0,0.58 -0.41,0.99 0,0 -0.41,0.41 -0.99,0.41 0,0 -0.58,0 -0.99,-0.41 0,0 -0.41,-0.41 -0.41,-0.99 l 0,-2.8 c 0,0 0,-0.58 0.41,-0.99 0,0 0.41,-0.41 0.99,-0.41 0,0 0.58,0 0.99,0.41 0,0 0.41,0.41 0.41,0.99 0,0 0,0.69 -0.185,1.045 0,0 -0.185,0.355 -0.655,0.675 0,0 -0.58,0.37 -1.15,0.74 l 0,0.34 c 0,0 0,0.25 0.17,0.42 0,0 0.17,0.17 0.42,0.17 0,0 0.24,0 0.415,-0.17 0,0 0.175,-0.17 0.175,-0.42 l 0,-0.09 0.81,-0.27 0,0.36 0,0 z M 2.33,5.79 c 0,0 0,-0.24 -0.175,-0.415 0,0 -0.175,-0.175 -0.415,-0.175 0,0 -0.25,0 -0.42,0.175 0,0 -0.17,0.175 -0.17,0.415 l 0,1.53 c 0,0 0.72,-0.41 0.92,-0.64 0,0 0.26,-0.3 0.26,-0.89 z"
       inkscape:connector-curvature="0" />
    <path
       id="GlLibelSuit87"
       d="m 4.79,2.81 -0.95,7.18 -0.75,0 -0.58,-4.18 -0.59,4.18 -0.75,0 -0.92,-7.18 0.88,0 0.43,4.12 0.61,-4.12 0.7,0 0.61,4.12 0.43,-4.12 0.88,0 z"
       inkscape:connector-curvature="0" />
    <path
       id="GlLibelSuit69"
       d="m 2.87,9.99 -2.53,0 0,-7.18 2.53,0 0,0.81 -1.72,0 0,2.37 0.91,0 0,0.81 -0.91,0 0,2.38 1.72,0 0,0.81 z"
       inkscape:connector-curvature="0" />
    <path
       id="GlLibelSuit78"
       d="m 3.14,9.99 -0.81,0 -1.18,-4.06 0,4.06 -0.81,0 0,-7.18 0.81,0 1.18,4.44 0,-4.44 0.81,0 0,7.18 z"
       inkscape:connector-curvature="0" />
    <path
       id="GlLibelSuit117"
       d="M 3.14,9.99 2.6,9.99 2.42,9.68 c 0,0 -0.24,0.31 -0.68,0.31 0,0 -0.58,0 -0.99,-0.41 0,0 -0.41,-0.41 -0.41,-0.99 l 0,-4.2 0.81,0 0,4.2 c 0,0 0,0.25 0.17,0.42 0,0 0.17,0.17 0.42,0.17 0,0 0.24,0 0.415,-0.17 0,0 0.175,-0.17 0.175,-0.42 l 0,-4.2 0.81,0 0,5.6 z"
       inkscape:connector-curvature="0" />
    <path
       id="GlLibelSuit100"
       d="M 3.14,9.99 2.6,9.99 2.42,9.68 c 0,0 -0.09,0.13 -0.3,0.22 0,0 -0.21,0.09 -0.38,0.09 0,0 -0.58,0 -0.99,-0.41 0,0 -0.41,-0.41 -0.41,-0.99 l 0,-2.8 c 0,0 0,-0.58 0.41,-0.99 0,0 0.41,-0.41 0.99,-0.41 0,0 0.44,0 0.59,0.31 l 0,-1.62 0.81,-0.27 0,7.18 0,0 z m -0.81,-1.4 0,-2.8 c 0,0 0,-0.24 -0.175,-0.415 0,0 -0.175,-0.175 -0.415,-0.175 0,0 -0.25,0 -0.42,0.175 0,0 -0.17,0.175 -0.17,0.415 l 0,2.8 c 0,0 0,0.25 0.17,0.42 0,0 0.17,0.17 0.42,0.17 0,0 0.24,0 0.415,-0.17 0,0 0.175,-0.17 0.175,-0.42 z"
       inkscape:connector-curvature="0" />
    <path
       id="GlLibelSuit65"
       d="m 3.13,10 -0.89,0 -0.1,-0.89 -0.83,0 -0.1,0.89 -0.89,0 1.04,-7.19 0.75,0 1.02,7.19 0,0 z M 2.05,8.28 1.73,5.42 1.4,8.28 l 0.65,0 z"
       inkscape:connector-curvature="0" />
    <path
       id="GlLibelSuit66"
       d="m 3.14,8.55 c 0,0 0,0.51 -0.37,0.95 0,0 -0.41,0.49 -0.98,0.49 l -1.45,0 0,-7.18 1.45,0 c 0,0 0.57,0 0.98,0.49 0,0 0.37,0.44 0.37,0.95 l 0,1.09 c 0,0 0,0.29 -0.17,0.58 0,0 -0.18,0.34 -0.48,0.48 0,0 0.27,0.12 0.46,0.455 0,0 0.19,0.335 0.19,0.605 l 0,1.09 0,0 z m -0.81,-3.34 0,-0.82 c 0,0 0,-0.33 -0.185,-0.55 0,0 -0.185,-0.22 -0.525,-0.22 l -0.47,0 0,2.37 0.47,0 c 0,0 0.28,0 0.495,-0.235 0,0 0.215,-0.235 0.215,-0.545 l 0,0 z m 0,3.2 0,-0.82 c 0,0 0,-0.31 -0.215,-0.545 0,0 -0.215,-0.235 -0.495,-0.235 l -0.47,0 0,2.37 0.47,0 c 0,0 0.34,0 0.525,-0.22 0,0 0.185,-0.22 0.185,-0.55 z"
       inkscape:connector-curvature="0" />
    <path
       id="GlLibelSuit82"
       d="m 3.14,9.99 -0.81,0 0,-2.4 c 0,0 0,-0.31 -0.215,-0.545 0,0 -0.215,-0.235 -0.495,-0.235 l -0.47,0 0,3.18 -0.81,0 0,-7.18 1.45,0 c 0,0 0.57,0 0.98,0.49 0,0 0.37,0.44 0.37,0.95 l 0,1.09 c 0,0 0,0.29 -0.17,0.58 0,0 -0.18,0.34 -0.48,0.48 0,0 0.27,0.12 0.46,0.455 0,0 0.19,0.335 0.19,0.605 l 0,2.53 0,0 z m -0.81,-4.78 0,-0.82 c 0,0 0,-0.33 -0.185,-0.55 0,0 -0.185,-0.22 -0.525,-0.22 l -0.47,0 0,2.37 0.47,0 c 0,0 0.28,0 0.495,-0.235 0,0 0.215,-0.235 0.215,-0.545 z"
       inkscape:connector-curvature="0" />
    <path
       id="GlLibelSuit46"
       d="m 1.15,9.49 c 0,0 0,0.2 -0.105,0.35 0,0 -0.105,0.15 -0.285,0.15 0,0 -0.18,0 -0.3,-0.155 0,0 -0.12,-0.155 -0.12,-0.345 0,0 0,-0.2 0.12,-0.355 0,0 0.12,-0.155 0.3,-0.155 0,0 0.18,0 0.285,0.15 0,0 0.105,0.15 0.105,0.36 z"
       inkscape:connector-curvature="0" />
  </defs>
  <g
     id="Hintergrund"
     transform="translate(0,-544.2522)">
    <g
       transform="translate(42.836243,588.15286)"
       id="g25">
      <rect
         style="fill:#ffffff;fill-opacity:1;stroke:none"
         id="rect3038"
         width="524.20367"
         height="372.85461"
         x="0"
         y="-0.019108443"
         transform="matrix(0.79999999,0,0,0.79999999,-42.83625,-43.90066)" />
      <use
         style="fill:#131312;stroke:none"
         xlink:href="#GlKenyanCoffeeBold66"
         transform="matrix(18,0,0,18,0,-49.31)"
         id="use27"
         x="0"
         y="0"
         width="595.28003"
         height="841.89001" />
      <use
         style="fill:#131312;stroke:none"
         xlink:href="#GlKenyanCoffeeBold65"
         transform="matrix(18,0,0,18,69.48,-49.31)"
         id="use29"
         x="0"
         y="0"
         width="595.28003"
         height="841.89001" />
      <use
         style="fill:#131312;stroke:none"
         xlink:href="#GlKenyanCoffeeBold102"
         transform="matrix(18,0,0,18,138.06,-49.31)"
         id="use31"
         x="0"
         y="0"
         width="595.28003"
         height="841.89001" />
      <use
         style="fill:#131312;stroke:none"
         xlink:href="#GlKenyanCoffeeBold246"
         transform="matrix(18,0,0,18,179.84,-49.31)"
         id="use33"
         x="0"
         y="0"
         width="595.28003"
         height="841.89001" />
      <use
         style="fill:#131312;stroke:none"
         xlink:href="#GlKenyanCoffeeBold71"
         transform="matrix(18,0,0,18,238.34,-49.31)"
         id="use35"
         x="0"
         y="0"
         width="595.28003"
         height="841.89001" />
      <path
         style="fill:none;stroke:none"
         d="m 0,0 402.458,0 0,197.238 L 0,197.238 0,0 z"
         id="path37"
         inkscape:connector-curvature="0" />
    </g>
    <path
       style="fill:#f07713;fill-rule:evenodd;stroke:#ffffff;stroke-width:2.83465004;stroke-linecap:butt;stroke-linejoin:miter;stroke-dasharray:none"
       d="m 171.18184,732.25346 89.42408,-20.64517 15.97145,41.42502 1.39191,42.19556 -86.04991,19.37182 -18.98561,-82.13373"
       id="path39"
       inkscape:connector-curvature="0" />
    <g
       transform="matrix(0.97437006,-0.22495105,0.22495105,0.97437006,175.32684,728.46846)"
       id="g41">
      <use
         style="fill:#ffffff;stroke:none"
         xlink:href="#GlLibelSuit111"
         transform="matrix(6,0,0,6,0,-16.85)"
         id="use43"
         x="0"
         y="0"
         width="595.28003"
         height="841.89001" />
      <use
         style="fill:#ffffff;stroke:none"
         xlink:href="#GlLibelSuit104"
         transform="matrix(6,0,0,6,20.88,-16.85)"
         id="use45"
         x="0"
         y="0"
         width="595.28003"
         height="841.89001" />
      <use
         style="fill:#ffffff;stroke:none"
         xlink:href="#GlLibelSuit110"
         transform="matrix(6,0,0,6,41.76,-16.85)"
         id="use47"
         x="0"
         y="0"
         width="595.28003"
         height="841.89001" />
      <use
         style="fill:#ffffff;stroke:none"
         xlink:href="#GlLibelSuit101"
         transform="matrix(6,0,0,6,62.64,-16.85)"
         id="use49"
         x="0"
         y="0"
         width="595.28003"
         height="841.89001" />
      <path
         style="fill:none;stroke:none"
         d="m 0,0 110.585,0 0,69.222 L 0,69.222 0,0 z"
         id="path51"
         inkscape:connector-curvature="0" />
    </g>
    <g
       transform="matrix(0.97437006,-0.22495105,0.22495105,0.97437006,255.44584,696.87146)"
       id="g53">
      <use
         style="fill:#f07713;stroke:#ffffff;stroke-width:0.50632912;stroke-miterlimit:4;stroke-dasharray:none"
         xlink:href="#GlLibelSuit87"
         transform="matrix(7.9,0,0,7.9,0,-22.199)"
         id="use55"
         x="0"
         y="0"
         width="595.28003"
         height="841.89001" />
      <use
         style="fill:#f07713;stroke:#ffffff;stroke-width:0.50632912;stroke-miterlimit:4;stroke-dasharray:none"
         xlink:href="#GlLibelSuit69"
         transform="matrix(7.9,0,0,7.9,41.08,-22.199)"
         id="use57"
         x="0"
         y="0"
         width="595.28003"
         height="841.89001" />
      <use
         style="fill:#f07713;stroke:#ffffff;stroke-width:0.50632912;stroke-miterlimit:4;stroke-dasharray:none"
         xlink:href="#GlLibelSuit78"
         transform="matrix(7.9,0,0,7.9,66.834,-22.199)"
         id="use59"
         x="0"
         y="0"
         width="595.28003"
         height="841.89001" />
      <use
         style="fill:#f07713;stroke:#ffffff;stroke-width:0.50632912;stroke-miterlimit:4;stroke-dasharray:none"
         xlink:href="#GlLibelSuit78"
         transform="matrix(7.9,0,0,7.9,94.326,-22.199)"
         id="use61"
         x="0"
         y="0"
         width="595.28003"
         height="841.89001" />
      <path
         style="fill:none;stroke:none"
         d="m 0,0 157.943,0 0,99.1334 L 0,99.1334 0,0 z"
         id="path63"
         inkscape:connector-curvature="0" />
    </g>
    <g
       transform="matrix(0.97437006,-0.22495105,0.22495105,0.97437006,205.26084,764.46046)"
       id="g65">
      <use
         style="fill:#ffffff;stroke:none"
         xlink:href="#GlLibelSuit117"
         transform="matrix(6,0,0,6,0,-16.85)"
         id="use67"
         x="0"
         y="0"
         width="595.28003"
         height="841.89001" />
      <use
         style="fill:#ffffff;stroke:none"
         xlink:href="#GlLibelSuit110"
         transform="matrix(6,0,0,6,20.88,-16.85)"
         id="use69"
         x="0"
         y="0"
         width="595.28003"
         height="841.89001" />
      <use
         style="fill:#ffffff;stroke:none"
         xlink:href="#GlLibelSuit100"
         transform="matrix(6,0,0,6,41.76,-16.85)"
         id="use71"
         x="0"
         y="0"
         width="595.28003"
         height="841.89001" />
      <path
         style="fill:none;stroke:none"
         d="m 0,0 76.7594,0 0,69.6117 L 0,69.6117 0,0 z"
         id="path73"
         inkscape:connector-curvature="0" />
    </g>
    <g
       transform="matrix(0.97437006,-0.22495105,0.22495105,0.97437006,267.53384,754.34246)"
       id="g75">
      <use
         style="fill:#f07713;stroke:none"
         xlink:href="#GlLibelSuit65"
         transform="matrix(7.9,0,0,7.9,0,-22.199)"
         id="use77"
         x="0"
         y="0"
         width="595.28003"
         height="841.89001" />
      <use
         style="fill:#f07713;stroke:none"
         xlink:href="#GlLibelSuit66"
         transform="matrix(7.9,0,0,7.9,27.492,-22.199)"
         id="use79"
         x="0"
         y="0"
         width="595.28003"
         height="841.89001" />
      <use
         style="fill:#f07713;stroke:none"
         xlink:href="#GlLibelSuit69"
         transform="matrix(7.9,0,0,7.9,54.984,-22.199)"
         id="use81"
         x="0"
         y="0"
         width="595.28003"
         height="841.89001" />
      <use
         style="fill:#f07713;stroke:none"
         xlink:href="#GlLibelSuit82"
         transform="matrix(7.9,0,0,7.9,80.738,-22.199)"
         id="use83"
         x="0"
         y="0"
         width="595.28003"
         height="841.89001" />
      <use
         style="fill:#f07713;stroke:none"
         xlink:href="#GlLibelSuit46"
         transform="matrix(7.9,0,0,7.9,108.23,-22.199)"
         id="use85"
         x="0"
         y="0"
         width="595.28003"
         height="841.89001" />
      <path
         style="fill:none;stroke:none"
         d="m 0,0 126.989,0 0,91.0015 L 0,91.0015 0,0 z"
         id="path87"
         inkscape:connector-curvature="0" />
    </g>
    <g
       transform="matrix(0.97437006,-0.22495105,0.22495105,0.97437006,255.44584,696.87146)"
       id="g89">
      <use
         style="fill:#f07713;stroke:none"
         xlink:href="#GlLibelSuit87"
         transform="matrix(7.9,0,0,7.9,0,-22.199)"
         id="use91"
         x="0"
         y="0"
         width="595.28003"
         height="841.89001" />
      <use
         style="fill:#f07713;stroke:none"
         xlink:href="#GlLibelSuit69"
         transform="matrix(7.9,0,0,7.9,41.08,-22.199)"
         id="use93"
         x="0"
         y="0"
         width="595.28003"
         height="841.89001" />
      <use
         style="fill:#f07713;stroke:none"
         xlink:href="#GlLibelSuit78"
         transform="matrix(7.9,0,0,7.9,66.834,-22.199)"
         id="use95"
         x="0"
         y="0"
         width="595.28003"
         height="841.89001" />
      <use
         style="fill:#f07713;stroke:none"
         xlink:href="#GlLibelSuit78"
         transform="matrix(7.9,0,0,7.9,94.326,-22.199)"
         id="use97"
         x="0"
         y="0"
         width="595.28003"
         height="841.89001" />
      <path
         style="fill:none;stroke:none"
         d="m 0,0 143.444,0 0,86.6754 L 0,86.6754 0,0 z"
         id="path99"
         inkscape:connector-curvature="0" />
    </g>
  </g>
</svg>
